<mxfile host="app.diagrams.net" modified="2024-05-05T17:10:16.324Z" agent="Mozilla/5.0 (Windows NT 10.0; Win64; x64; rv:125.0) Gecko/20100101 Firefox/125.0" etag="auxFIrqIjoLrKbeZYRYH" version="24.1.0" type="github">
  <diagram name="Page-1" id="aJNvPGV1j7dXfou5CJUt">
    <mxGraphModel dx="1195" dy="652" grid="1" gridSize="10" guides="1" tooltips="1" connect="1" arrows="1" fold="1" page="1" pageScale="1" pageWidth="850" pageHeight="1100" math="0" shadow="0">
      <root>
        <mxCell id="0" />
        <mxCell id="1" parent="0" />
        <mxCell id="K2bbMnxz0RQGCQ17qI1y-8" value="" style="edgeStyle=orthogonalEdgeStyle;rounded=0;orthogonalLoop=1;jettySize=auto;html=1;" parent="1" source="K2bbMnxz0RQGCQ17qI1y-1" target="K2bbMnxz0RQGCQ17qI1y-4" edge="1">
          <mxGeometry relative="1" as="geometry" />
        </mxCell>
        <mxCell id="K2bbMnxz0RQGCQ17qI1y-1" value="Concept" style="rounded=0;whiteSpace=wrap;html=1;" parent="1" vertex="1">
          <mxGeometry x="16" y="240" width="80" height="40" as="geometry" />
        </mxCell>
        <mxCell id="K2bbMnxz0RQGCQ17qI1y-9" value="" style="edgeStyle=orthogonalEdgeStyle;rounded=0;orthogonalLoop=1;jettySize=auto;html=1;" parent="1" source="K2bbMnxz0RQGCQ17qI1y-4" target="K2bbMnxz0RQGCQ17qI1y-5" edge="1">
          <mxGeometry relative="1" as="geometry" />
        </mxCell>
        <mxCell id="K2bbMnxz0RQGCQ17qI1y-20" value="" style="edgeStyle=orthogonalEdgeStyle;rounded=0;orthogonalLoop=1;jettySize=auto;html=1;entryX=0.5;entryY=1;entryDx=0;entryDy=0;" parent="1" source="K2bbMnxz0RQGCQ17qI1y-4" target="K2bbMnxz0RQGCQ17qI1y-22" edge="1">
          <mxGeometry relative="1" as="geometry" />
        </mxCell>
        <mxCell id="K2bbMnxz0RQGCQ17qI1y-24" value="" style="edgeStyle=orthogonalEdgeStyle;rounded=0;orthogonalLoop=1;jettySize=auto;html=1;entryX=0.5;entryY=1;entryDx=0;entryDy=0;" parent="1" source="K2bbMnxz0RQGCQ17qI1y-4" target="K2bbMnxz0RQGCQ17qI1y-19" edge="1">
          <mxGeometry relative="1" as="geometry">
            <mxPoint x="171" y="360" as="targetPoint" />
          </mxGeometry>
        </mxCell>
        <mxCell id="K2bbMnxz0RQGCQ17qI1y-4" value="1. Concept Assurance" style="rounded=0;whiteSpace=wrap;html=1;" parent="1" vertex="1">
          <mxGeometry x="131" y="240" width="80" height="40" as="geometry" />
        </mxCell>
        <mxCell id="K2bbMnxz0RQGCQ17qI1y-16" value="" style="edgeStyle=orthogonalEdgeStyle;rounded=0;orthogonalLoop=1;jettySize=auto;html=1;entryX=0.5;entryY=0;entryDx=0;entryDy=0;" parent="1" source="K2bbMnxz0RQGCQ17qI1y-5" target="nlyexQyfy2i0xz8NeN2S-8" edge="1">
          <mxGeometry relative="1" as="geometry">
            <mxPoint x="331" y="320" as="targetPoint" />
          </mxGeometry>
        </mxCell>
        <mxCell id="K2bbMnxz0RQGCQ17qI1y-18" value="" style="edgeStyle=orthogonalEdgeStyle;rounded=0;orthogonalLoop=1;jettySize=auto;html=1;entryX=0.5;entryY=0;entryDx=0;entryDy=0;" parent="1" source="K2bbMnxz0RQGCQ17qI1y-5" target="nlyexQyfy2i0xz8NeN2S-9" edge="1">
          <mxGeometry relative="1" as="geometry">
            <mxPoint x="251" y="320" as="targetPoint" />
          </mxGeometry>
        </mxCell>
        <mxCell id="K2bbMnxz0RQGCQ17qI1y-5" value="2. Hazard Identification" style="rounded=0;whiteSpace=wrap;html=1;" parent="1" vertex="1">
          <mxGeometry x="251" y="240" width="80" height="40" as="geometry" />
        </mxCell>
        <mxCell id="K2bbMnxz0RQGCQ17qI1y-56" value="" style="edgeStyle=orthogonalEdgeStyle;rounded=0;orthogonalLoop=1;jettySize=auto;html=1;" parent="1" source="K2bbMnxz0RQGCQ17qI1y-10" target="K2bbMnxz0RQGCQ17qI1y-55" edge="1">
          <mxGeometry relative="1" as="geometry" />
        </mxCell>
        <mxCell id="K2bbMnxz0RQGCQ17qI1y-57" value="" style="edgeStyle=orthogonalEdgeStyle;rounded=0;orthogonalLoop=1;jettySize=auto;html=1;entryX=0.5;entryY=1;entryDx=0;entryDy=0;" parent="1" source="K2bbMnxz0RQGCQ17qI1y-10" target="K2bbMnxz0RQGCQ17qI1y-54" edge="1">
          <mxGeometry relative="1" as="geometry" />
        </mxCell>
        <mxCell id="K2bbMnxz0RQGCQ17qI1y-10" value="&lt;font style=&quot;font-size: 10px;&quot;&gt;3. Requirements Capturing / Assurance&lt;/font&gt;" style="rounded=0;whiteSpace=wrap;html=1;" parent="1" vertex="1">
          <mxGeometry x="371" y="240" width="80" height="40" as="geometry" />
        </mxCell>
        <mxCell id="K2bbMnxz0RQGCQ17qI1y-15" value="" style="edgeStyle=orthogonalEdgeStyle;rounded=0;orthogonalLoop=1;jettySize=auto;html=1;" parent="1" source="K2bbMnxz0RQGCQ17qI1y-12" target="K2bbMnxz0RQGCQ17qI1y-14" edge="1">
          <mxGeometry relative="1" as="geometry" />
        </mxCell>
        <mxCell id="7KcPxOA9Z6zE15e5CAlF-1" value="" style="edgeStyle=orthogonalEdgeStyle;rounded=0;orthogonalLoop=1;jettySize=auto;html=1;" parent="1" source="K2bbMnxz0RQGCQ17qI1y-12" target="K2bbMnxz0RQGCQ17qI1y-14" edge="1">
          <mxGeometry relative="1" as="geometry" />
        </mxCell>
        <mxCell id="K2bbMnxz0RQGCQ17qI1y-12" value="5.Failure Management" style="rounded=0;whiteSpace=wrap;html=1;" parent="1" vertex="1">
          <mxGeometry x="680" y="240" width="80" height="40" as="geometry" />
        </mxCell>
        <mxCell id="K2bbMnxz0RQGCQ17qI1y-59" value="" style="edgeStyle=orthogonalEdgeStyle;rounded=0;orthogonalLoop=1;jettySize=auto;html=1;" parent="1" source="K2bbMnxz0RQGCQ17qI1y-14" target="K2bbMnxz0RQGCQ17qI1y-58" edge="1">
          <mxGeometry relative="1" as="geometry" />
        </mxCell>
        <mxCell id="K2bbMnxz0RQGCQ17qI1y-14" value="6. AS Design Assurance" style="rounded=0;whiteSpace=wrap;html=1;" parent="1" vertex="1">
          <mxGeometry x="790" y="240" width="80" height="40" as="geometry" />
        </mxCell>
        <mxCell id="K2bbMnxz0RQGCQ17qI1y-19" value="Initial ODM" style="ellipse;whiteSpace=wrap;html=1;" parent="1" vertex="1">
          <mxGeometry x="86" y="160" width="85" height="40" as="geometry" />
        </mxCell>
        <mxCell id="K2bbMnxz0RQGCQ17qI1y-22" value="Scenario Definition" style="ellipse;whiteSpace=wrap;html=1;" parent="1" vertex="1">
          <mxGeometry x="176" y="160" width="85" height="40" as="geometry" />
        </mxCell>
        <mxCell id="K2bbMnxz0RQGCQ17qI1y-64" value="" style="edgeStyle=orthogonalEdgeStyle;rounded=0;orthogonalLoop=1;jettySize=auto;html=1;" parent="1" source="K2bbMnxz0RQGCQ17qI1y-54" target="K2bbMnxz0RQGCQ17qI1y-62" edge="1">
          <mxGeometry relative="1" as="geometry">
            <Array as="points">
              <mxPoint x="374" y="150" />
              <mxPoint x="411" y="150" />
            </Array>
          </mxGeometry>
        </mxCell>
        <mxCell id="K2bbMnxz0RQGCQ17qI1y-54" value="Incident Reports" style="ellipse;whiteSpace=wrap;html=1;" parent="1" vertex="1">
          <mxGeometry x="331" y="160" width="85" height="40" as="geometry" />
        </mxCell>
        <mxCell id="K2bbMnxz0RQGCQ17qI1y-63" value="" style="edgeStyle=orthogonalEdgeStyle;rounded=0;orthogonalLoop=1;jettySize=auto;html=1;" parent="1" source="K2bbMnxz0RQGCQ17qI1y-55" target="K2bbMnxz0RQGCQ17qI1y-62" edge="1">
          <mxGeometry relative="1" as="geometry">
            <Array as="points">
              <mxPoint x="459" y="150" />
              <mxPoint x="411" y="150" />
            </Array>
          </mxGeometry>
        </mxCell>
        <mxCell id="K2bbMnxz0RQGCQ17qI1y-55" value="Reaction Capturing" style="ellipse;whiteSpace=wrap;html=1;" parent="1" vertex="1">
          <mxGeometry x="416" y="160" width="85" height="40" as="geometry" />
        </mxCell>
        <mxCell id="K2bbMnxz0RQGCQ17qI1y-58" value="7. Safe Operating Context" style="rounded=0;whiteSpace=wrap;html=1;" parent="1" vertex="1">
          <mxGeometry x="900" y="240" width="80" height="40" as="geometry" />
        </mxCell>
        <mxCell id="K2bbMnxz0RQGCQ17qI1y-62" value="4. Hazard Classification" style="whiteSpace=wrap;html=1;" parent="1" vertex="1">
          <mxGeometry x="366" y="100" width="90" height="30" as="geometry" />
        </mxCell>
        <mxCell id="7KcPxOA9Z6zE15e5CAlF-2" value="Criticality Determination" style="ellipse;whiteSpace=wrap;html=1;" parent="1" vertex="1">
          <mxGeometry x="508" y="60" width="88" height="50" as="geometry" />
        </mxCell>
        <mxCell id="7KcPxOA9Z6zE15e5CAlF-3" value="ODM Verification." style="ellipse;whiteSpace=wrap;html=1;" parent="1" vertex="1">
          <mxGeometry x="508" y="110" width="88" height="50" as="geometry" />
        </mxCell>
        <mxCell id="7KcPxOA9Z6zE15e5CAlF-6" value="" style="endArrow=classic;html=1;rounded=0;exitX=1;exitY=0.5;exitDx=0;exitDy=0;entryX=0;entryY=0.5;entryDx=0;entryDy=0;" parent="1" source="K2bbMnxz0RQGCQ17qI1y-62" target="7KcPxOA9Z6zE15e5CAlF-2" edge="1">
          <mxGeometry width="50" height="50" relative="1" as="geometry">
            <mxPoint x="390" y="250" as="sourcePoint" />
            <mxPoint x="440" y="200" as="targetPoint" />
            <Array as="points">
              <mxPoint x="490" y="115" />
              <mxPoint x="490" y="85" />
            </Array>
          </mxGeometry>
        </mxCell>
        <mxCell id="7KcPxOA9Z6zE15e5CAlF-7" value="" style="endArrow=classic;html=1;rounded=0;exitX=1;exitY=0.5;exitDx=0;exitDy=0;entryX=-0.047;entryY=0.494;entryDx=0;entryDy=0;entryPerimeter=0;" parent="1" source="K2bbMnxz0RQGCQ17qI1y-62" target="7KcPxOA9Z6zE15e5CAlF-3" edge="1">
          <mxGeometry width="50" height="50" relative="1" as="geometry">
            <mxPoint x="390" y="250" as="sourcePoint" />
            <mxPoint x="440" y="200" as="targetPoint" />
            <Array as="points">
              <mxPoint x="490" y="115" />
              <mxPoint x="490" y="135" />
            </Array>
          </mxGeometry>
        </mxCell>
        <mxCell id="7KcPxOA9Z6zE15e5CAlF-8" value="" style="endArrow=classic;html=1;rounded=0;entryX=0;entryY=0.5;entryDx=0;entryDy=0;exitX=1;exitY=0.5;exitDx=0;exitDy=0;" parent="1" source="7KcPxOA9Z6zE15e5CAlF-3" target="K2bbMnxz0RQGCQ17qI1y-12" edge="1">
          <mxGeometry width="50" height="50" relative="1" as="geometry">
            <mxPoint x="560" y="250" as="sourcePoint" />
            <mxPoint x="610" y="200" as="targetPoint" />
            <Array as="points">
              <mxPoint x="596" y="110" />
              <mxPoint x="620" y="110" />
              <mxPoint x="620" y="260" />
            </Array>
          </mxGeometry>
        </mxCell>
        <mxCell id="7KcPxOA9Z6zE15e5CAlF-9" value="" style="endArrow=none;html=1;rounded=0;entryX=1;entryY=0.5;entryDx=0;entryDy=0;" parent="1" target="7KcPxOA9Z6zE15e5CAlF-2" edge="1">
          <mxGeometry width="50" height="50" relative="1" as="geometry">
            <mxPoint x="596" y="120" as="sourcePoint" />
            <mxPoint x="630" y="120" as="targetPoint" />
          </mxGeometry>
        </mxCell>
        <mxCell id="ufglJvLJs8HHqRGDxQkz-3" style="edgeStyle=orthogonalEdgeStyle;rounded=0;orthogonalLoop=1;jettySize=auto;html=1;entryX=0.5;entryY=0;entryDx=0;entryDy=0;endArrow=none;endFill=0;dashed=1;dashPattern=8 8;" parent="1" source="ufglJvLJs8HHqRGDxQkz-1" target="K2bbMnxz0RQGCQ17qI1y-62" edge="1">
          <mxGeometry relative="1" as="geometry" />
        </mxCell>
        <mxCell id="ufglJvLJs8HHqRGDxQkz-1" value="&lt;div&gt;ODM Iteration&lt;/div&gt;" style="text;html=1;strokeColor=none;fillColor=none;align=center;verticalAlign=middle;whiteSpace=wrap;rounded=0;" parent="1" vertex="1">
          <mxGeometry x="381" y="30" width="60" height="30" as="geometry" />
        </mxCell>
        <mxCell id="nlyexQyfy2i0xz8NeN2S-1" value="" style="endArrow=none;dashed=1;html=1;dashPattern=1 3;strokeWidth=2;rounded=0;entryX=0;entryY=0.5;entryDx=0;entryDy=0;exitX=0.5;exitY=0;exitDx=0;exitDy=0;endFill=0;startArrow=classic;startFill=1;" parent="1" source="K2bbMnxz0RQGCQ17qI1y-5" target="ufglJvLJs8HHqRGDxQkz-1" edge="1">
          <mxGeometry width="50" height="50" relative="1" as="geometry">
            <mxPoint x="630" y="360" as="sourcePoint" />
            <mxPoint x="680" y="310" as="targetPoint" />
            <Array as="points">
              <mxPoint x="290" y="45" />
            </Array>
          </mxGeometry>
        </mxCell>
        <mxCell id="nlyexQyfy2i0xz8NeN2S-5" value="&lt;div&gt;Identification of components&lt;/div&gt;" style="shape=parallelogram;perimeter=parallelogramPerimeter;whiteSpace=wrap;html=1;fixedSize=1;size=4;" parent="1" vertex="1">
          <mxGeometry x="230" y="380" width="120" height="40" as="geometry" />
        </mxCell>
        <mxCell id="nlyexQyfy2i0xz8NeN2S-8" value="&lt;font style=&quot;font-size: 9px;&quot;&gt;Digital Hazard Analysis&lt;/font&gt;" style="ellipse;whiteSpace=wrap;html=1;" parent="1" vertex="1">
          <mxGeometry x="292" y="320" width="85" height="40" as="geometry" />
        </mxCell>
        <mxCell id="nlyexQyfy2i0xz8NeN2S-9" value="&lt;font style=&quot;font-size: 9px;&quot;&gt;Physical Hazard Analysis&lt;/font&gt;" style="ellipse;whiteSpace=wrap;html=1;" parent="1" vertex="1">
          <mxGeometry x="207" y="320" width="85" height="40" as="geometry" />
        </mxCell>
        <mxCell id="nlyexQyfy2i0xz8NeN2S-10" value="" style="endArrow=classic;html=1;rounded=0;exitX=0.516;exitY=0.995;exitDx=0;exitDy=0;exitPerimeter=0;entryX=0.5;entryY=0;entryDx=0;entryDy=0;" parent="1" source="nlyexQyfy2i0xz8NeN2S-8" target="nlyexQyfy2i0xz8NeN2S-5" edge="1">
          <mxGeometry width="50" height="50" relative="1" as="geometry">
            <mxPoint x="400" y="360" as="sourcePoint" />
            <mxPoint x="450" y="310" as="targetPoint" />
            <Array as="points">
              <mxPoint x="290" y="360" />
            </Array>
          </mxGeometry>
        </mxCell>
        <mxCell id="nlyexQyfy2i0xz8NeN2S-11" value="" style="endArrow=none;html=1;rounded=0;exitX=0.5;exitY=1;exitDx=0;exitDy=0;endFill=0;" parent="1" source="nlyexQyfy2i0xz8NeN2S-9" edge="1">
          <mxGeometry width="50" height="50" relative="1" as="geometry">
            <mxPoint x="400" y="360" as="sourcePoint" />
            <mxPoint x="290" y="360" as="targetPoint" />
          </mxGeometry>
        </mxCell>
        <mxCell id="jJ6IJQ74MDHmNZXgPsIj-1" value="" style="endArrow=classic;html=1;rounded=0;exitX=1;exitY=0.5;exitDx=0;exitDy=0;entryX=0.5;entryY=1;entryDx=0;entryDy=0;" edge="1" parent="1" source="nlyexQyfy2i0xz8NeN2S-5" target="K2bbMnxz0RQGCQ17qI1y-10">
          <mxGeometry width="50" height="50" relative="1" as="geometry">
            <mxPoint x="460" y="290" as="sourcePoint" />
            <mxPoint x="510" y="240" as="targetPoint" />
            <Array as="points">
              <mxPoint x="411" y="400" />
            </Array>
          </mxGeometry>
        </mxCell>
        <mxCell id="jJ6IJQ74MDHmNZXgPsIj-2" value="" style="endArrow=none;dashed=1;html=1;dashPattern=1 3;strokeWidth=2;rounded=0;entryX=0;entryY=0.5;entryDx=0;entryDy=0;exitX=0.5;exitY=1;exitDx=0;exitDy=0;endFill=0;startArrow=classic;startFill=1;" edge="1" parent="1" source="K2bbMnxz0RQGCQ17qI1y-1" target="nlyexQyfy2i0xz8NeN2S-5">
          <mxGeometry width="50" height="50" relative="1" as="geometry">
            <mxPoint x="111" y="615" as="sourcePoint" />
            <mxPoint x="201" y="420" as="targetPoint" />
            <Array as="points">
              <mxPoint x="56" y="400" />
            </Array>
          </mxGeometry>
        </mxCell>
        <mxCell id="jJ6IJQ74MDHmNZXgPsIj-3" value="Does not validate ODM" style="text;html=1;align=center;verticalAlign=middle;whiteSpace=wrap;rounded=0;" vertex="1" parent="1">
          <mxGeometry x="71" y="370" width="79" height="30" as="geometry" />
        </mxCell>
        <mxCell id="jJ6IJQ74MDHmNZXgPsIj-4" value="Validates ODM" style="text;html=1;align=center;verticalAlign=middle;whiteSpace=wrap;rounded=0;" vertex="1" parent="1">
          <mxGeometry x="350" y="370" width="60" height="30" as="geometry" />
        </mxCell>
      </root>
    </mxGraphModel>
  </diagram>
</mxfile>
